<?xml version="1.0" standalone="no"?>
<!DOCTYPE svg PUBLIC "-//W3C//DTD SVG 20010904//EN"
 "http://www.w3.org/TR/2001/REC-SVG-20010904/DTD/svg10.dtd">
<svg version="1.0" xmlns="http://www.w3.org/2000/svg"
 width="618.000000pt" height="206.000000pt" viewBox="0 0 618.000000 206.000000"
 preserveAspectRatio="xMidYMid meet">

<g transform="translate(0.000000,206.000000) scale(0.100000,-0.100000)"
fill="#000000" stroke="none">
<path d="M0 1030 l0 -1030 3090 0 3090 0 0 1030 0 1030 -3090 0 -3090 0 0
-1030z m6170 0 l0 -1020 -3080 0 -3080 0 0 1020 0 1020 3080 0 3080 0 0 -1020z"/>
<path d="M1388 1515 c-25 -13 -84 -60 -130 -104 l-85 -80 -64 9 c-35 5 -70 10
-77 10 -10 0 -9 7 4 30 18 29 17 30 -6 55 -13 14 -30 25 -37 25 -7 0 -34 -20
-59 -45 -27 -27 -54 -45 -68 -45 -32 0 -37 9 -21 34 14 21 13 25 -14 50 -33
32 -46 29 -98 -26 l-32 -33 -91 9 -90 10 -30 -29 c-17 -16 -30 -34 -30 -39 0
-6 89 -51 198 -100 185 -84 267 -130 267 -153 0 -5 -37 -49 -82 -97 l-82 -88
-111 12 c-110 12 -112 11 -136 -11 -13 -12 -24 -26 -24 -30 0 -5 39 -32 86
-61 48 -29 88 -58 91 -64 2 -6 -5 -27 -17 -47 -27 -45 -13 -54 40 -27 l40 20
36 -57 c20 -32 47 -75 61 -97 l25 -39 28 29 27 29 -13 110 -13 110 92 89 91
89 31 -36 c16 -19 72 -128 124 -241 52 -113 98 -206 102 -206 4 0 21 16 39 36
23 27 30 43 26 63 -3 14 -8 52 -12 84 -6 57 -6 58 35 102 22 24 41 51 41 58 0
7 -11 24 -25 37 -22 21 -29 22 -45 12 -26 -16 -27 -16 -33 14 -4 22 4 35 39
69 48 46 55 72 23 100 -17 16 -24 17 -51 7 -18 -6 -33 -11 -34 -9 -2 1 -6 37
-10 79 l-7 76 81 81 c106 107 155 204 120 239 -19 19 -69 13 -120 -13z m99
-10 c3 -9 3 -19 -1 -22 -8 -9 -37 18 -30 28 8 14 24 11 31 -6z m-21 -30 c16
-25 16 -27 -19 -78 -20 -29 -138 -153 -262 -277 l-225 -224 -45 44 -45 44 227
229 c287 287 332 319 369 262z m-632 -37 c18 -30 -4 -33 -32 -4 l-27 28 24 -4
c13 -2 29 -11 35 -20z m196 -42 c-13 -13 -55 27 -45 44 5 8 14 5 31 -11 17
-16 21 -26 14 -33z m-233 22 c13 -12 23 -25 23 -30 0 -11 -37 -10 -44 1 -3 4
-18 6 -32 3 -21 -4 -25 -2 -19 9 26 46 38 49 72 17z m208 -58 c-15 -14 -17
-13 -29 2 -9 13 -16 14 -24 6 -6 -6 -18 -8 -28 -4 -15 6 -14 10 11 36 l29 30
28 -27 c26 -25 27 -28 13 -43z m-151 -15 c147 -19 275 -35 284 -35 10 0 -25
-41 -82 -99 l-99 -99 -29 21 c-35 26 -35 33 0 71 l27 31 -31 -27 c-35 -32 -53
-34 -96 -12 l-30 16 23 26 24 27 -27 -24 c-24 -21 -30 -22 -62 -11 -41 13 -53
27 -37 43 21 21 11 30 -11 10 l-23 -21 -95 45 c-95 44 -95 44 -73 62 12 10 32
17 45 15 13 -3 144 -20 292 -39z m471 -503 c30 -225 35 -285 25 -297 -7 -8
-16 -15 -21 -15 -9 0 -89 164 -89 183 0 6 8 20 18 31 17 21 17 21 -5 3 -22
-19 -22 -19 -43 23 l-22 42 28 29 c32 33 22 40 -12 8 l-23 -21 -15 37 c-20 48
-20 47 9 75 14 13 25 28 25 34 0 5 -13 -3 -29 -18 -33 -32 -50 -30 -70 7 -13
25 -11 28 80 117 87 85 94 90 101 68 4 -13 23 -150 43 -306z m80 198 c21 -23
12 -39 -13 -24 -19 12 -29 44 -14 44 5 0 17 -9 27 -20z m-25 -25 l24 -26 -33
-32 -33 -32 4 33 c3 17 1 32 -4 32 -10 0 -11 34 -1 43 11 11 18 8 43 -18z
m-475 -80 c34 -35 43 -59 27 -69 -13 -8 -95 80 -88 93 11 18 23 13 61 -24z
m-32 -42 c35 -34 36 -37 20 -55 -19 -21 -192 -122 -198 -116 -8 7 118 208 130
208 7 0 28 -17 48 -37z m-136 -12 c18 -10 -42 -102 -62 -95 -19 8 -19 28 0 44
9 7 13 15 10 18 -3 3 -14 -3 -26 -14 -20 -18 -21 -18 -75 11 -85 46 -74 59 44
50 53 -4 102 -10 109 -14z m685 -28 c18 -16 25 -43 10 -43 -14 0 -53 46 -45
53 9 10 14 9 35 -10z m-16 -77 c-7 -12 -21 -23 -31 -25 -14 -2 -17 2 -12 20 3
12 1 31 -4 41 -18 34 2 41 32 12 26 -25 28 -30 15 -48z m-538 -103 c8 -74 7
-101 -2 -110 -9 -10 -19 -1 -45 43 l-33 56 23 26 c19 21 19 23 3 9 -19 -15
-44 -23 -44 -13 0 2 -3 11 -6 20 -4 10 7 23 33 40 21 14 43 25 49 25 6 1 15
-38 22 -96z"/>
<path d="M1882 1048 c5 -203 21 -218 230 -218 148 0 170 7 205 59 21 31 23 45
23 162 l0 129 -35 0 -35 0 0 -124 c0 -124 0 -125 -27 -146 -25 -20 -37 -21
-141 -18 -151 4 -152 5 -152 169 l0 119 -36 0 -36 0 4 -132z"/>
<path d="M2420 1005 l0 -175 35 0 35 0 0 145 c0 158 3 164 53 125 14 -12 48
-53 74 -93 106 -158 129 -177 212 -177 l51 0 0 175 0 175 -35 0 -35 0 0 -145
c0 -117 -3 -145 -14 -145 -18 0 -62 51 -117 132 -83 125 -127 158 -209 158
l-50 0 0 -175z"/>
<path d="M3029 1159 c-55 -32 -69 -64 -69 -156 0 -60 5 -85 20 -110 34 -56 60
-63 240 -63 l160 0 0 29 0 30 -160 3 c-190 4 -192 5 -198 100 -3 53 -1 67 18
90 l21 27 157 3 157 3 3 33 3 32 -158 0 c-142 0 -162 -3 -194 -21z"/>
<path d="M3450 1050 c0 -210 11 -220 230 -220 l151 0 -3 28 -3 27 -140 3
c-181 3 -175 -3 -175 168 l0 124 -30 0 -30 0 0 -130z"/>
<path d="M3880 1145 l0 -25 210 0 210 0 0 25 0 25 -210 0 -210 0 0 -25z"/>
<path d="M3880 930 l0 -100 210 0 210 0 0 30 0 30 -180 0 -180 0 0 40 0 40
145 0 145 0 0 30 0 30 -175 0 -175 0 0 -100z"/>
</g>
</svg>
